<svg width="82" height="105" viewBox="0 0 82 105" fill="none" xmlns="http://www.w3.org/2000/svg">
<path d="M40.1808 89.8423L40.6251 89.6931L41.9137 89.32L46.8604 87.8278L65.3883 82.5901L65.2106 82.9035C64.2627 79.6952 63.1963 76.1138 62.0707 72.2639V72.0998L62.2188 71.9655C67.3503 67.6328 71.7169 62.4562 75.1336 56.6552C77.0372 53.3863 78.492 49.8725 79.4583 46.2096C80.4722 42.316 80.7088 38.2583 80.1543 34.2718C78.8104 25.6088 74.5041 17.6913 67.9801 11.8884C60.9272 5.68258 52.1227 1.8576 42.8023 0.950318C35.8053 0.351303 28.7836 1.76938 22.5563 5.03905C16.5549 7.98103 11.37 12.3746 7.46442 17.8275C3.8665 22.9647 1.63334 28.9443 0.977437 35.197C0.888574 36.6892 0.666413 38.1814 0.696034 39.6736C0.725655 41.1659 0.770089 42.6581 0.814521 44.031C1.04971 46.8322 1.54557 49.605 2.29557 52.3128C3.03162 54.8555 4.02417 57.3156 5.25767 59.6546C6.4656 61.8325 7.89509 63.8779 9.52308 65.7578C12.4936 69.1129 15.9972 71.947 19.8904 74.1441C25.5714 77.3902 31.7967 79.5551 38.2555 80.5309H38.3591V80.6204L39.8402 87.3951C39.9883 88.1412 40.1068 88.7232 40.1808 89.141C40.2549 89.5588 40.2993 89.7379 40.2993 89.7528C40.2289 89.5803 40.1792 89.4 40.1512 89.2156L39.7365 87.5145L38.137 80.6801L38.2703 80.7994C31.7403 79.9076 25.435 77.7866 19.6831 74.547C15.7358 72.3471 12.1817 69.4974 9.16764 66.1159C7.47621 64.2135 5.98705 62.138 4.72449 59.9232C3.43554 57.5507 2.39327 55.0504 1.61428 52.4621C0.871588 49.712 0.375908 46.9003 0.133228 44.0608L-6.10352e-05 39.5841C-6.10352e-05 38.0919 0.192479 36.5997 0.281342 35.1074C0.92774 28.7277 3.19227 22.6228 6.85721 17.3798C10.8269 11.8115 16.1034 7.32053 22.2157 4.30783C28.5923 0.957827 35.7863 -0.48661 42.9504 0.144548C52.4555 1.05193 61.4358 4.95202 68.617 11.2915C72.0017 14.2917 74.817 17.8866 76.9257 21.9012C77.4881 22.8598 77.983 23.8571 78.4067 24.8857C78.8645 25.8503 79.2506 26.8479 79.5619 27.8701C79.873 28.9147 80.2136 29.9294 80.495 30.959C80.7764 31.9887 80.8652 33.0631 81.0578 34.1076C81.6085 38.1917 81.3518 42.3452 80.3025 46.329C79.307 50.0479 77.8122 53.6125 75.8593 56.9238C72.3756 62.7725 67.9338 67.9845 62.7224 72.3385L62.8261 72.0401L65.8919 82.6797L65.9659 82.9184L65.7289 82.993L46.9936 88.0069L42.0617 89.3052L40.8177 89.6185L40.1808 89.8423Z" fill="#FF725E"/>
<path d="M67.8023 89.8572C63.5962 91.4466 59.2982 92.7771 54.932 93.8414C50.6355 95.1664 46.2634 96.2279 41.8395 97.0199C46.05 95.4478 50.3473 94.1225 54.7098 93.0505C59.0072 91.7252 63.3791 90.6589 67.8023 89.8572Z" fill="#FF725E"/>
<path d="M62.012 102.064C60.6891 103.006 59.1689 103.629 57.5688 103.884C56.0261 104.386 54.3905 104.529 52.785 104.302C54.2693 103.735 55.808 103.325 57.3763 103.078C58.8844 102.587 60.4372 102.247 62.012 102.064Z" fill="#FF725E"/>
<path d="M45.4685 88.4545C45.4002 88.3227 45.3504 88.1821 45.3204 88.0366C45.2315 87.7083 45.1278 87.2905 44.9797 86.7682C44.6835 85.5844 44.2688 83.9579 43.7356 81.8887C42.6693 77.5761 41.1586 71.4431 39.2925 63.8775C38.3594 60.0723 37.3523 55.909 36.3304 51.4472C36.1123 50.3451 35.6739 49.2992 35.0419 48.3732C34.775 47.9178 34.3537 47.5748 33.8556 47.4075C33.3576 47.2403 32.8163 47.26 32.3316 47.463C31.8718 47.7733 31.5011 48.2 31.2567 48.7003C31.0124 49.2005 30.9029 49.7568 30.9394 50.3131C30.9748 51.5089 31.4437 52.6502 32.2575 53.5214C33.1327 54.4314 34.2136 55.1143 35.4077 55.5119C36.6018 55.9095 37.8738 56.0099 39.1148 55.8045C40.4163 55.6054 41.6479 55.0822 42.6979 54.2822C43.7479 53.4823 44.5831 52.4308 45.1278 51.2234C46.3377 48.7097 46.6415 45.8502 45.9868 43.1355C45.7344 41.7618 45.0913 40.4917 44.1355 39.4795C43.6792 39.0204 43.0865 38.7239 42.4477 38.635C41.8088 38.5461 41.1586 38.6698 40.5958 38.9871C40.1111 39.4251 39.7832 40.0119 39.6628 40.6565C39.5423 41.3012 39.636 41.9679 39.9293 42.5535C40.5791 43.7693 41.5276 44.7969 42.6841 45.538C44.8672 47.2858 47.4956 48.3772 50.2671 48.6866C51.588 48.8057 52.9182 48.6062 54.1474 48.1046C55.3077 47.5619 56.3231 46.7486 57.1095 45.732C57.9022 44.7442 58.3775 43.5366 58.4721 42.27C58.5211 41.6626 58.4466 41.0516 58.2531 40.4742C58.0595 39.8969 57.751 39.3655 57.3465 38.9125C56.9994 38.4763 56.5377 38.1472 56.014 37.9625C55.4903 37.7778 54.9257 37.7451 54.3844 37.8679C53.8555 38.0618 53.3776 38.3751 52.9874 38.7837C52.5972 39.1924 52.305 39.6856 52.1332 40.2256C51.4075 42.4192 52.0443 44.8665 52.3109 47.1197C53.0218 51.5964 53.792 55.8642 54.5769 59.6992C56.058 67.3395 57.3465 73.5322 58.2203 77.8746C58.635 79.9786 58.9756 81.635 59.2126 82.8138C59.3015 83.351 59.3903 83.7689 59.4496 84.1121C59.4641 84.2609 59.4641 84.4109 59.4496 84.5598C59.3888 84.4212 59.3441 84.2759 59.3163 84.127C59.2274 83.7987 59.1238 83.3809 58.9905 82.8586C58.7091 81.6797 58.3388 80.0383 57.85 77.9492C56.8874 73.6814 55.51 67.5036 53.9549 59.8186C53.1847 55.9836 52.3405 51.7755 51.5852 47.2242C51.4223 46.0752 51.2297 44.9262 51.1113 43.7175C50.9383 42.4671 51.0394 41.1937 51.4075 39.9869C51.6169 39.3402 51.9698 38.7501 52.4395 38.2615C52.9091 37.7728 53.483 37.3983 54.1178 37.1666C54.8036 36.9897 55.5251 37.0122 56.1987 37.2314C56.8723 37.4506 57.4706 37.8575 57.9241 38.4051C58.3905 38.9329 58.7474 39.5494 58.9738 40.2183C59.2002 40.8871 59.2915 41.5949 59.2422 42.2999C59.1587 43.7254 58.6416 45.0904 57.7612 46.2095C56.8798 47.3459 55.7357 48.2476 54.4288 48.8358C53.0826 49.3873 51.6266 49.6122 50.1782 49.4924C47.2592 49.1663 44.4889 48.0239 42.1805 46.1946C40.9112 45.3515 39.8886 44.1821 39.2184 42.8072C38.7924 42.0695 38.6545 41.1982 38.8316 40.3635C39.0088 39.5289 39.4882 38.7906 40.1765 38.2929C40.8647 37.7952 41.7123 37.5738 42.5539 37.6718C43.3954 37.7698 44.1705 38.1802 44.7279 38.823C45.7902 39.9482 46.5098 41.3569 46.8014 42.8818C47.4972 45.7835 47.1673 48.8388 45.8684 51.5218C45.2598 52.8378 44.3387 53.9824 43.1866 54.8543C42.0345 55.7262 40.6868 56.2986 39.2629 56.5208C37.8961 56.7425 36.4964 56.6246 35.1852 56.1773C33.874 55.73 32.691 54.9668 31.7391 53.9542C30.8051 52.9436 30.2772 51.6193 30.2581 50.2385C30.2189 49.5485 30.3663 48.8607 30.6845 48.2484C31.0027 47.6361 31.4798 47.1223 32.065 46.7616C32.3818 46.6086 32.7256 46.5206 33.0765 46.5027C33.4274 46.4847 33.7783 46.5372 34.1088 46.6571C34.7094 46.9125 35.2237 47.3374 35.5899 47.8808C36.2651 48.895 36.7426 50.0293 36.9969 51.2234C38.0484 55.7 39.0259 59.8783 39.959 63.6984L44.1059 81.7394C44.565 83.8286 44.9353 85.47 45.2019 86.6638C45.3056 87.186 45.3944 87.6039 45.4685 87.9471C45.4998 88.1148 45.4998 88.2868 45.4685 88.4545Z" fill="#FF725E"/>
<path d="M66.7815 95.4382C63.4135 96.8001 59.9478 97.9026 56.4142 98.7361C52.934 99.8281 49.3801 100.666 45.7803 101.243C49.1483 99.8811 52.614 98.7787 56.1476 97.9452C59.6283 96.8549 63.1821 96.0171 66.7815 95.4382Z" fill="#FF725E"/>
</svg>
