<svg width="118" height="152" viewBox="0 0 118 152" fill="none" xmlns="http://www.w3.org/2000/svg">
<path d="M58.2904 130.806L58.9349 130.59L60.8042 130.049L67.9803 127.884L94.8588 120.285L94.601 120.74C93.2259 116.086 91.6789 110.89 90.046 105.305V105.067L90.2609 104.872C97.705 98.5868 104.04 91.0772 108.996 82.6617C111.758 77.9195 113.868 72.8219 115.27 67.5083C116.741 61.8598 117.084 55.9733 116.28 50.1901C114.33 37.6227 108.083 26.1368 98.6187 17.7185C88.3871 8.71575 75.6144 3.16686 62.0933 1.85067C51.9428 0.98168 41.7564 3.03889 32.7225 7.78219C24.0163 12.0501 16.4945 18.4239 10.8287 26.3343C5.60921 33.787 2.36957 42.4615 1.41806 51.5322C1.28914 53.697 0.966853 55.8618 1.00982 58.0266C1.0528 60.1913 1.11726 62.3561 1.18171 64.3477C1.5229 68.4115 2.24224 72.434 3.33027 76.3622C4.39806 80.0509 5.83794 83.6198 7.62738 87.0129C9.37973 90.1724 11.4535 93.1396 13.8152 95.8668C18.1246 100.734 23.2072 104.845 28.8551 108.033C37.0965 112.742 46.1276 115.883 55.4972 117.298H55.6476V117.428L57.7962 127.256C58.011 128.338 58.1829 129.183 58.2904 129.789C58.3978 130.395 58.4622 130.655 58.4622 130.676C58.3601 130.426 58.2879 130.164 58.2474 129.897L57.6458 127.429L55.3253 117.515L55.5187 117.688C46.0457 116.394 36.8987 113.317 28.5543 108.617C22.828 105.426 17.672 101.292 13.2996 96.3863C10.8458 93.6265 8.68549 90.6155 6.8539 87.4025C4.98402 83.9607 3.472 80.3335 2.34192 76.5787C1.2645 72.5892 0.545418 68.5102 0.193362 64.391L0 57.8967C0 55.7319 0.279318 53.5671 0.408231 51.4024C1.34596 42.1473 4.63112 33.2909 9.94783 25.6848C15.7066 17.607 23.3613 11.0919 32.2284 6.72141C41.479 1.86156 51.9152 -0.233879 62.3081 0.681741C76.0973 1.99808 89.1248 7.65593 99.5426 16.8526C104.453 21.205 108.537 26.4202 111.596 32.2441C112.412 33.6348 113.13 35.0815 113.745 36.5736C114.409 37.9731 114.969 39.4202 115.42 40.9032C115.872 42.4185 116.366 43.8906 116.774 45.3843C117.182 46.878 117.311 48.4366 117.59 49.9519C118.389 55.8767 118.017 61.9022 116.495 67.6814C115.051 73.0765 112.882 78.2476 110.049 83.0513C104.995 91.536 98.5515 99.097 90.9914 105.413L91.1418 104.98L95.5893 120.415L95.6967 120.762L95.353 120.87L68.1737 128.144L61.019 130.027L59.2142 130.481L58.2904 130.806Z" fill="white"/>
<path d="M98.3605 130.828C92.2587 133.134 86.0236 135.064 79.6895 136.608C73.4567 138.53 67.114 140.07 60.6963 141.219C66.8046 138.938 73.0386 137.015 79.3673 135.46C85.6015 133.538 91.9438 131.991 98.3605 130.828Z" fill="white"/>
<path d="M89.9607 148.536C88.0416 149.903 85.8362 150.806 83.515 151.177C81.277 151.905 78.9042 152.112 76.5752 151.783C78.7285 150.961 80.9606 150.366 83.2357 150.008C85.4236 149.294 87.6763 148.801 89.9607 148.536Z" fill="white"/>
<path d="M65.9609 128.793C65.8619 128.602 65.7896 128.398 65.7461 128.187C65.6171 127.71 65.4667 127.104 65.2519 126.347C64.8222 124.629 64.2206 122.27 63.4471 119.268C61.9001 113.012 59.7086 104.114 57.0014 93.139C55.6478 87.6189 54.1868 81.5792 52.7043 75.1065C52.388 73.5077 51.752 71.9904 50.8351 70.6471C50.4478 69.9863 49.8367 69.4888 49.1142 69.2461C48.3917 69.0035 47.6065 69.032 46.9032 69.3265C46.2362 69.7767 45.6984 70.3957 45.3439 71.1215C44.9894 71.8472 44.8307 72.6541 44.8836 73.4613C44.935 75.196 45.6152 76.8517 46.7958 78.1155C48.0654 79.4356 49.6334 80.4264 51.3657 81.0032C53.0981 81.5799 54.9433 81.7256 56.7436 81.4276C58.6317 81.1388 60.4184 80.3798 61.9416 79.2192C63.4649 78.0587 64.6766 76.5334 65.4667 74.7817C67.2219 71.1352 67.6625 66.9869 66.7129 63.0487C66.3467 61.0559 65.4137 59.2133 64.0272 57.745C63.3652 57.0789 62.5054 56.6488 61.5786 56.5198C60.6518 56.3909 59.7086 56.5702 58.8922 57.0306C58.189 57.6661 57.7133 58.5173 57.5386 59.4525C57.3638 60.3877 57.4997 61.3548 57.9253 62.2044C58.8679 63.9682 60.2439 65.4589 61.9216 66.534C65.0886 69.0695 68.9017 70.6528 72.9222 71.1017C74.8385 71.2745 76.7682 70.9851 78.5514 70.2574C80.2347 69.47 81.7077 68.2902 82.8485 66.8154C83.9985 65.3825 84.688 63.6306 84.8252 61.7931C84.8964 60.912 84.7883 60.0256 84.5075 59.188C84.2267 58.3505 83.7792 57.5795 83.1923 56.9224C82.6888 56.2896 82.019 55.8121 81.2593 55.5442C80.4996 55.2763 79.6804 55.2288 78.8952 55.4071C78.1279 55.6883 77.4347 56.1427 76.8686 56.7356C76.3025 57.3285 75.8786 58.044 75.6294 58.8274C74.5766 62.0096 75.5005 65.5598 75.8872 68.8286C76.9185 75.3229 78.0358 81.5142 79.1745 87.0777C81.3231 98.1613 83.1923 107.145 84.46 113.445C85.0616 116.497 85.5557 118.9 85.8995 120.61C86.0284 121.389 86.1573 121.995 86.2433 122.493C86.2644 122.709 86.2644 122.927 86.2433 123.143C86.1551 122.942 86.0902 122.731 86.0499 122.515C85.921 122.039 85.7706 121.433 85.5772 120.675C85.169 118.965 84.6318 116.584 83.9228 113.553C82.5263 107.362 80.5281 98.3994 78.2721 87.2509C77.1549 81.6874 75.9302 75.5827 74.8344 68.9802C74.5981 67.3133 74.3188 65.6464 74.1469 63.8929C73.896 62.079 74.0426 60.2317 74.5766 58.481C74.8804 57.5429 75.3924 56.6869 76.0737 55.9779C76.755 55.269 77.5876 54.7258 78.5084 54.3896C79.5033 54.133 80.55 54.1656 81.5272 54.4836C82.5044 54.8016 83.3723 55.3919 84.0303 56.1864C84.7069 56.952 85.2247 57.8463 85.5531 58.8167C85.8815 59.787 86.0139 60.8138 85.9425 61.8364C85.8213 63.9044 85.0711 65.8847 83.7939 67.5081C82.5153 69.1567 80.8556 70.4648 78.9597 71.3182C77.0067 72.1182 74.8945 72.4445 72.7933 72.2707C68.5587 71.7975 64.5399 70.1403 61.1911 67.4865C59.3497 66.2635 57.8662 64.567 56.894 62.5725C56.2759 61.5022 56.0759 60.2383 56.3328 59.0274C56.5898 57.8165 57.2854 56.7456 58.2838 56.0236C59.2822 55.3016 60.5118 54.9803 61.7327 55.1225C62.9535 55.2646 64.078 55.86 64.8866 56.7925C66.4276 58.4249 67.4716 60.4685 67.8946 62.6807C68.904 66.8901 68.4253 71.3225 66.541 75.2147C65.6582 77.1238 64.322 78.7842 62.6506 80.0491C60.9792 81.314 59.0242 82.1444 56.9584 82.4667C54.9757 82.7884 52.9451 82.6173 51.043 81.9684C49.1408 81.3195 47.4247 80.2124 46.0438 78.7433C44.6887 77.2773 43.9229 75.3561 43.8952 73.3531C43.8384 72.352 44.0522 71.3542 44.5138 70.4659C44.9754 69.5777 45.6675 68.8323 46.5164 68.3091C46.976 68.0872 47.4749 67.9595 47.9839 67.9335C48.4929 67.9074 49.0019 67.9836 49.4815 68.1575C50.3527 68.5279 51.0989 69.1444 51.63 69.9327C52.6096 71.4039 53.3023 73.0496 53.6711 74.7817C55.1966 81.2761 56.6147 87.3375 57.9683 92.8793L63.9842 119.051C64.6503 122.082 65.1874 124.463 65.5742 126.195C65.7246 126.953 65.8535 127.559 65.9609 128.057C66.0063 128.3 66.0063 128.55 65.9609 128.793Z" fill="white"/>
<path d="M96.8801 138.924C91.9941 140.9 86.9664 142.499 81.8402 143.708C76.7914 145.293 71.6358 146.508 66.4136 147.345C71.2996 145.369 76.3273 143.77 81.4535 142.561C86.5029 140.979 91.6583 139.764 96.8801 138.924Z" fill="white"/>
</svg>
