<svg width="124" height="158" viewBox="0 0 124 158" fill="none" xmlns="http://www.w3.org/2000/svg">
<path d="M60.7695 135.877L61.4415 135.652L63.3902 135.087L70.8716 132.831L98.8932 124.909L98.6244 125.383C97.1909 120.531 95.5781 115.114 93.8758 109.292V109.044L94.0997 108.84C101.861 102.288 108.465 94.4587 113.632 85.6852C116.511 80.7414 118.711 75.427 120.173 69.8873C121.706 63.9986 122.064 57.8617 121.225 51.8326C119.193 38.7307 112.68 26.7563 102.813 17.98C92.1463 8.59432 78.8303 2.80943 64.7342 1.43726C54.152 0.53131 43.5324 2.67601 34.1142 7.62105C25.0377 12.0705 17.196 18.7153 11.2893 26.9622C5.84778 34.7318 2.47035 43.7753 1.47837 53.2318C1.34397 55.4887 1.00797 57.7455 1.05277 60.0023C1.09757 62.2592 1.16477 64.5161 1.23197 66.5924C1.58767 70.829 2.33761 75.0225 3.47191 79.1178C4.58511 82.9634 6.08623 86.6841 7.95178 90.2215C9.77866 93.5154 11.9406 96.6088 14.4028 99.452C18.8954 104.526 24.1942 108.812 30.0823 112.135C38.6742 117.045 48.0894 120.319 57.8576 121.795H58.0144V121.93L60.2543 132.176C60.4783 133.305 60.6575 134.185 60.7695 134.817C60.8815 135.449 60.9487 135.719 60.9487 135.742C60.8422 135.481 60.767 135.208 60.7247 134.93L60.0975 132.357L57.6784 122.02L57.88 122.201C48.0041 120.852 38.468 117.644 29.7687 112.745C23.7989 109.418 18.4236 105.108 13.8652 99.9936C11.3071 97.1164 9.0549 93.9773 7.1454 90.6277C5.196 87.0395 3.61966 83.2581 2.44152 79.3435C1.31828 75.1844 0.568615 70.9319 0.201586 66.6375L0 59.8669C0 57.6101 0.291197 55.3533 0.425594 53.0964C1.4032 43.4477 4.82808 34.2147 10.3709 26.2851C16.3746 17.8637 24.3549 11.0716 33.5991 6.51515C43.2431 1.44862 54.1232 -0.735948 64.9582 0.218613C79.3338 1.59094 92.9154 7.48942 103.776 17.0772C108.895 21.6147 113.153 27.0517 116.342 33.1233C117.193 34.5732 117.941 36.0815 118.582 37.637C119.275 39.096 119.859 40.6047 120.329 42.1507C120.8 43.7305 121.315 45.2652 121.741 46.8224C122.166 48.3796 122.301 50.0045 122.592 51.5843C123.425 57.7611 123.036 64.0429 121.449 70.0678C119.944 75.6924 117.683 81.0834 114.73 86.0914C109.461 94.937 102.743 102.82 94.8614 109.405L95.0181 108.953L99.6548 125.045L99.7668 125.406L99.4084 125.518L71.0732 133.102L63.6142 135.065L61.7327 135.539L60.7695 135.877Z" fill="#FF725E"/>
<path d="M102.543 135.9C96.1822 138.304 89.6819 140.316 83.0784 141.926C76.5805 143.93 69.968 145.535 63.2773 146.733C69.6454 144.355 76.1446 142.351 82.7424 140.73C89.2418 138.725 95.8538 137.112 102.543 135.9Z" fill="#FF725E"/>
<path d="M93.7863 154.361C91.7857 155.786 89.4864 156.728 87.0665 157.114C84.7333 157.873 82.2596 158.089 79.8315 157.746C82.0764 156.889 84.4035 156.269 86.7754 155.896C89.0563 155.152 91.4047 154.638 93.7863 154.361Z" fill="#FF725E"/>
<path d="M68.766 133.778C68.6627 133.579 68.5874 133.366 68.542 133.146C68.4076 132.65 68.2508 132.018 68.0268 131.228C67.5788 129.438 66.9516 126.978 66.1452 123.848C64.5325 117.326 62.2477 108.05 59.4254 96.6081C58.0143 90.8531 56.4911 84.5566 54.9456 77.8086C54.6158 76.1418 53.9527 74.56 52.9968 73.1595C52.5931 72.4707 51.956 71.952 51.2027 71.699C50.4495 71.446 49.6309 71.4758 48.8977 71.7828C48.2023 72.2521 47.6417 72.8975 47.2722 73.6541C46.9026 74.4107 46.737 75.252 46.7922 76.0934C46.8458 77.9019 47.555 79.628 48.7857 80.9456C50.1094 82.3219 51.7441 83.3547 53.5501 83.9561C55.3561 84.5574 57.2797 84.7092 59.1566 84.3986C61.125 84.0975 62.9877 83.3061 64.5758 82.0963C66.1638 80.8864 67.427 79.2962 68.2508 77.47C70.0807 73.6684 70.54 69.3436 69.55 65.238C69.1682 63.1605 68.1955 61.2394 66.75 59.7087C66.0598 59.0143 65.1635 58.5659 64.1973 58.4314C63.2311 58.297 62.2477 58.484 61.3966 58.964C60.6636 59.6264 60.1676 60.5138 59.9854 61.4888C59.8032 62.4638 59.9449 63.4721 60.3886 64.3578C61.3713 66.1966 62.8058 67.7507 64.5549 68.8715C67.8566 71.5149 71.8319 73.1655 76.0234 73.6335C78.0212 73.8136 80.0329 73.5119 81.892 72.7533C83.6469 71.9324 85.1825 70.7024 86.3719 69.1649C87.5707 67.671 88.2895 65.8447 88.4326 63.929C88.5068 63.0104 88.3941 62.0863 88.1014 61.2131C87.8087 60.34 87.3421 59.5362 86.7303 58.8511C86.2053 58.1914 85.5071 57.6936 84.715 57.4143C83.923 57.135 83.069 57.0855 82.2504 57.2713C81.4504 57.5645 80.7277 58.0383 80.1376 58.6564C79.5474 59.2745 79.1055 60.0204 78.8457 60.8371C77.7481 64.1547 78.7113 67.8559 79.1145 71.2637C80.1896 78.0343 81.3544 84.4889 82.5416 90.289C84.7815 101.844 86.7303 111.21 88.0518 117.777C88.679 120.959 89.1942 123.465 89.5526 125.247C89.687 126.06 89.8214 126.692 89.911 127.211C89.933 127.436 89.933 127.663 89.911 127.888C89.819 127.678 89.7514 127.459 89.7094 127.233C89.575 126.737 89.4182 126.105 89.2166 125.315C88.791 123.532 88.231 121.05 87.4918 117.89C86.0359 111.436 83.9527 102.092 81.6008 90.4695C80.436 84.6694 79.1593 78.3051 78.0169 71.4217C77.7705 69.684 77.4793 67.9462 77.3001 66.1181C77.0385 64.227 77.1914 62.3012 77.7481 60.476C78.0648 59.498 78.5986 58.6056 79.3089 57.8665C80.0191 57.1274 80.8872 56.5611 81.8472 56.2106C82.8844 55.9431 83.9755 55.977 84.9943 56.3086C86.0131 56.6401 86.9179 57.2555 87.6038 58.0838C88.3093 58.882 88.8491 59.8144 89.1914 60.826C89.5338 61.8376 89.6718 62.908 89.5974 63.9742C89.471 66.1301 88.689 68.1946 87.3574 69.8871C86.0245 71.6057 84.2942 72.9695 82.3176 73.8591C80.2816 74.6932 78.0795 75.0334 75.889 74.8522C71.4743 74.3589 67.2845 72.6312 63.7933 69.8645C61.8736 68.5895 60.327 66.8208 59.3134 64.7415C58.6691 63.6257 58.4605 62.308 58.7284 61.0457C58.9963 59.7833 59.7215 58.6668 60.7624 57.9141C61.8032 57.1613 63.0852 56.8264 64.3579 56.9746C65.6307 57.1229 66.803 57.7436 67.646 58.7157C69.2526 60.4175 70.3409 62.548 70.7819 64.8543C71.8343 69.2428 71.3352 73.8637 69.3708 77.9214C68.4504 79.9117 67.0573 81.6428 65.3149 82.9615C63.5724 84.2801 61.5342 85.1458 59.3806 85.4819C57.3136 85.8172 55.1966 85.6389 53.2135 84.9624C51.2305 84.2859 49.4414 83.1317 48.0017 81.6001C46.5891 80.0717 45.7907 78.0689 45.7618 75.9806C45.7026 74.937 45.9255 73.8967 46.4067 72.9707C46.888 72.0447 47.6095 71.2675 48.4945 70.7221C48.9737 70.4907 49.4937 70.3576 50.0244 70.3305C50.555 70.3034 51.0857 70.3828 51.5856 70.5641C52.4939 70.9502 53.2719 71.593 53.8256 72.4147C54.8468 73.9486 55.5689 75.6642 55.9535 77.47C57.5439 84.2406 59.0222 90.5598 60.4334 96.3373L66.7052 123.623C67.3996 126.782 67.9596 129.265 68.3628 131.07C68.5196 131.86 68.654 132.492 68.766 133.011C68.8133 133.265 68.8133 133.525 68.766 133.778Z" fill="#FF725E"/>
<path d="M101 144.34C95.9063 146.4 90.6647 148.068 85.3205 149.328C80.057 150.98 74.6822 152.247 69.2378 153.12C74.3316 151.06 79.5731 149.393 84.9174 148.132C90.1816 146.483 95.5562 145.216 101 144.34Z" fill="#FF725E"/>
</svg>
