<svg width="95" height="36" viewBox="0 0 95 36" fill="none" xmlns="http://www.w3.org/2000/svg">
<path d="M11.4999 8C10.5399 8 9.69989 8.36 9.13989 9C8.57989 9.6 8.33989 10.48 8.45989 11.44L10.4599 23.4C10.7799 26 13.0999 28 15.4999 28H27.4999C30.0599 28 32.9399 25.76 33.4999 23.28L37.7399 10.52C37.8999 10 37.7799 9.24 37.4999 8.76C37.0599 8.28 36.3799 8 35.4999 8H11.4999ZM27.4999 36H15.4999C9.01989 36 3.33989 30.96 2.53989 24.56L0.539886 12.6C0.0998859 9.2 1.05989 6 3.13989 3.68C5.21989 1.36 8.25989 0 11.4999 0H35.4999C38.8199 0 41.8199 1.4 43.7399 3.84C44.1799 4.44 44.5799 5.08 44.8999 5.8C46.6199 5.44 48.3799 5.44 50.0599 5.8C50.3799 5.08 50.7799 4.44 51.2599 3.84C53.1399 1.4 56.1399 0 59.4999 0H83.4999C86.7399 0 89.7799 1.36 91.8599 3.68C93.8999 6 94.8599 9.2 94.4599 12.44L92.4199 24.72C91.6599 30.96 85.9399 36 79.4999 36H67.4999C61.2599 36 55.1799 31.24 53.6599 25.2L50.0599 14.36C48.5399 13.24 46.4199 13.24 44.8999 14.36L41.2199 25.48C39.7799 31.28 33.7399 36 27.4999 36ZM59.4999 8C58.6199 8 57.9399 8.28 57.4999 8.76C57.1799 9.24 57.0999 10 57.2999 10.8L61.3399 23C62.0599 25.76 64.9399 28 67.4999 28H79.4999C81.8599 28 84.2199 26 84.4999 23.56L86.5399 11.28C86.6599 10.48 86.4199 9.6 85.8599 9C85.5614 8.67364 85.1961 8.4154 84.7888 8.24285C84.3816 8.07029 83.942 7.98746 83.4999 8H59.4999Z" fill="#E2725B"/>
</svg>
