<svg width="77" height="68" viewBox="0 0 77 68" fill="none" xmlns="http://www.w3.org/2000/svg">
<path d="M0.5 6C0.5 4.4087 1.13214 2.88258 2.25736 1.75736C3.38258 0.632141 4.9087 0 6.5 0H70.5C72.0913 0 73.6174 0.632141 74.7426 1.75736C75.8679 2.88258 76.5 4.4087 76.5 6C76.5 7.5913 75.8679 9.11742 74.7426 10.2426C73.6174 11.3679 72.0913 12 70.5 12H6.5C4.9087 12 3.38258 11.3679 2.25736 10.2426C1.13214 9.11742 0.5 7.5913 0.5 6ZM6.5 28C4.9087 28 3.38258 28.6321 2.25736 29.7574C1.13214 30.8826 0.5 32.4087 0.5 34C0.5 35.5913 1.13214 37.1174 2.25736 38.2426C3.38258 39.3679 4.9087 40 6.5 40H30.5C32.0913 40 33.6174 39.3679 34.7426 38.2426C35.8679 37.1174 36.5 35.5913 36.5 34C36.5 32.4087 35.8679 30.8826 34.7426 29.7574C33.6174 28.6321 32.0913 28 30.5 28H6.5ZM0.5 62C0.5 60.4087 1.13214 58.8826 2.25736 57.7574C3.38258 56.6321 4.9087 56 6.5 56H10.5C12.0913 56 13.6174 56.6321 14.7426 57.7574C15.8679 58.8826 16.5 60.4087 16.5 62C16.5 63.5913 15.8679 65.1174 14.7426 66.2426C13.6174 67.3679 12.0913 68 10.5 68H6.5C4.9087 68 3.38258 67.3679 2.25736 66.2426C1.13214 65.1174 0.5 63.5913 0.5 62ZM40.5 62C40.5 60.4087 41.1321 58.8826 42.2574 57.7574C43.3826 56.6321 44.9087 56 46.5 56H50.5C52.0913 56 53.6174 56.6321 54.7426 57.7574C55.8679 58.8826 56.5 60.4087 56.5 62C56.5 63.5913 55.8679 65.1174 54.7426 66.2426C53.6174 67.3679 52.0913 68 50.5 68H46.5C44.9087 68 43.3826 67.3679 42.2574 66.2426C41.1321 65.1174 40.5 63.5913 40.5 62ZM26.5 56C24.9087 56 23.3826 56.6321 22.2574 57.7574C21.1321 58.8826 20.5 60.4087 20.5 62C20.5 63.5913 21.1321 65.1174 22.2574 66.2426C23.3826 67.3679 24.9087 68 26.5 68H30.5C32.0913 68 33.6174 67.3679 34.7426 66.2426C35.8679 65.1174 36.5 63.5913 36.5 62C36.5 60.4087 35.8679 58.8826 34.7426 57.7574C33.6174 56.6321 32.0913 56 30.5 56H26.5ZM60.5 62C60.5 60.4087 61.1321 58.8826 62.2574 57.7574C63.3826 56.6321 64.9087 56 66.5 56H70.5C72.0913 56 73.6174 56.6321 74.7426 57.7574C75.8679 58.8826 76.5 60.4087 76.5 62C76.5 63.5913 75.8679 65.1174 74.7426 66.2426C73.6174 67.3679 72.0913 68 70.5 68H66.5C64.9087 68 63.3826 67.3679 62.2574 66.2426C61.1321 65.1174 60.5 63.5913 60.5 62ZM62.284 20.708C62.0137 19.9192 61.5037 19.2346 60.8252 18.7499C60.1468 18.2652 59.3338 18.0047 58.5 18.0047C57.6662 18.0047 56.8532 18.2652 56.1748 18.7499C55.4963 19.2346 54.9863 19.9192 54.716 20.708L54.196 22.22C53.604 23.955 52.6224 25.5313 51.3264 26.828C50.0305 28.1246 48.4547 29.1071 46.72 29.7L45.208 30.216C44.4192 30.4863 43.7346 30.9963 43.2499 31.6748C42.7652 32.3532 42.5047 33.1662 42.5047 34C42.5047 34.8338 42.7652 35.6468 43.2499 36.3252C43.7346 37.0037 44.4192 37.5137 45.208 37.784L46.72 38.304C48.455 38.896 50.0313 39.8776 51.328 41.1736C52.6246 42.4695 53.6071 44.0453 54.2 45.78L54.716 47.292C54.9863 48.0808 55.4963 48.7654 56.1748 49.2501C56.8532 49.7348 57.6662 49.9953 58.5 49.9953C59.3338 49.9953 60.1468 49.7348 60.8252 49.2501C61.5037 48.7654 62.0137 48.0808 62.284 47.292L62.804 45.78C63.396 44.045 64.3776 42.4687 65.6736 41.172C66.9695 39.8754 68.5453 38.8929 70.28 38.3L71.792 37.784C72.5808 37.5137 73.2654 37.0037 73.7501 36.3252C74.2348 35.6468 74.4953 34.8338 74.4953 34C74.4953 33.1662 74.2348 32.3532 73.7501 31.6748C73.2654 30.9963 72.5808 30.4863 71.792 30.216L70.28 29.696C68.545 29.104 66.9687 28.1224 65.672 26.8264C64.3754 25.5305 63.3929 23.9547 62.8 22.22L62.284 20.708Z" fill="#E2725B"/>
</svg>
