<svg width="27" height="39" viewBox="0 0 27 39" fill="none" xmlns="http://www.w3.org/2000/svg">
<path d="M1.5 8.4C1.5 6.16 1.5 5.04 1.936 4.184C2.31949 3.43139 2.93139 2.81949 3.684 2.436C4.54 2 5.66 2 7.9 2H19.1C21.34 2 22.46 2 23.316 2.436C24.0686 2.81949 24.6805 3.43139 25.064 4.184C25.5 5.04 25.5 6.16 25.5 8.4V35.01C25.5 35.982 25.5 36.468 25.298 36.734C25.2107 36.8497 25.0993 36.945 24.9716 37.0134C24.8438 37.0818 24.7027 37.1216 24.558 37.13C24.224 37.15 23.82 36.88 23.012 36.342L13.5 30L3.988 36.34C3.18 36.88 2.776 37.15 2.44 37.13C2.29567 37.1213 2.15495 37.0814 2.02754 37.013C1.90014 36.9446 1.78907 36.8494 1.702 36.734C1.5 36.468 1.5 35.982 1.5 35.01V8.4Z" fill="#E2725B" stroke="#E2725B" stroke-width="3" stroke-linecap="round" stroke-linejoin="round"/>
</svg>
