<svg width="36" height="35" viewBox="0 0 36 35" fill="none" xmlns="http://www.w3.org/2000/svg">
<path d="M25.5 22H23.92L23.36 21.46C25.3879 19.1081 26.5024 16.1054 26.5 13C26.5 10.4288 25.7376 7.91543 24.3091 5.77759C22.8807 3.63975 20.8503 1.97351 18.4749 0.989572C16.0995 0.0056327 13.4856 -0.251811 10.9638 0.249797C8.44208 0.751405 6.1257 1.98953 4.30762 3.80762C2.48953 5.6257 1.25141 7.94208 0.749797 10.4638C0.248189 12.9856 0.505633 15.5995 1.48957 17.9749C2.47351 20.3503 4.13975 22.3807 6.27759 23.8091C8.41543 25.2376 10.9288 26 13.5 26C16.72 26 19.68 24.82 21.96 22.86L22.5 23.42V25L32.5 34.98L35.48 32L25.5 22ZM13.5 22C8.52001 22 4.50001 17.98 4.50001 13C4.50001 8.02001 8.52001 4.00001 13.5 4.00001C18.48 4.00001 22.5 8.02001 22.5 13C22.5 17.98 18.48 22 13.5 22Z" fill="#E2725B"/>
</svg>
